<svg xmlns="http://www.w3.org/2000/svg" viewBox="0 0 341 341"><defs><style>.cls-1{fill:#001e58;}.cls-2{fill:#fff;}</style></defs><title>Recurso 3</title><g id="Capa_2" data-name="Capa 2"><g id="Capa_1-2" data-name="Capa 1"><circle class="cls-1" cx="170.5" cy="170.5" r="170.5"/><path class="cls-2" d="M231.74,164.17l29.35-42.7a2.77,2.77,0,0,0-2.28-4.33h-83V106.07a2.76,2.76,0,0,0-2.77-2.77H115V97.77a2.77,2.77,0,1,0-5.53,0V258.23a2.77,2.77,0,1,0,5.53,0V189.07h30.51a13.69,13.69,0,0,0-2.84,8.3,13.85,13.85,0,0,0,13.83,13.83H258.82a2.77,2.77,0,0,0,2.28-4.33ZM115,108.83h55.33v74.7H115Zm41.5,96.83a8.3,8.3,0,1,1,0-16.6h16.6a2.76,2.76,0,0,0,2.77-2.77V122.67h77.74L226.1,162.6a2.77,2.77,0,0,0,0,3.13l27.45,39.93Z"/></g></g></svg>