<svg xmlns="http://www.w3.org/2000/svg" viewBox="0 0 341 341"><defs><style>.cls-1{fill:#f6c508;}.cls-2{fill:#fff;}</style></defs><title>Recurso 4</title><g id="Capa_2" data-name="Capa 2"><g id="Capa_1-2" data-name="Capa 1"><circle class="cls-1" cx="170.5" cy="170.5" r="170.5"/><path class="cls-2" d="M272.53,166.07H265a41.57,41.57,0,0,0-81.72-1.46,16.82,16.82,0,0,0-22.51,0,41.59,41.59,0,0,0-82.17,4.93H71.47a3.47,3.47,0,0,0,0,6.93h7.11a41.56,41.56,0,0,0,83-2.33c3-4.45,6.64-6.92,10.46-6.92s7.5,2.47,10.46,6.92A41.58,41.58,0,0,0,265.6,173h6.93a3.47,3.47,0,1,0,0-6.93Zm-152.28,41.6a34.67,34.67,0,1,1,0-69.33,34.67,34.67,0,0,1,0,69.33Zm104,0a34.67,34.67,0,1,1,0-69.33,34.67,34.67,0,0,1,0,69.33Z"/></g></g></svg>